<svg xmlns="http://www.w3.org/2000/svg" version="1.1" width="1000px" height="1000px" xmlns:xlink="http://www.w3.org/1999/xlink">
<g><path fill="#102338" d="M 541.5,172.5 C 544.346,172.448 546.68,171.448 548.5,169.5C 551.996,167.778 555.663,166.445 559.5,165.5C 561.153,165.34 562.486,164.674 563.5,163.5C 605.5,146.5 647.5,129.5 689.5,112.5C 692.346,112.448 694.68,111.448 696.5,109.5C 703.843,106.482 711.176,103.482 718.5,100.5C 719.492,100.328 720.158,100.662 720.5,101.5C 676.802,133.015 633.469,165.015 590.5,197.5C 590.833,197.833 591.167,198.167 591.5,198.5C 601.716,195.025 612.049,191.691 622.5,188.5C 624.553,188.598 626.22,187.931 627.5,186.5C 659.283,176.514 690.95,166.347 722.5,156C 732.127,152.425 733.794,154.425 727.5,162C 651.661,212.752 575.994,263.752 500.5,315C 466.833,335.333 433.167,355.667 399.5,376C 353.607,391.297 320.44,377.131 300,333.5C 288.031,290.844 298.864,255.344 332.5,227C 357.167,212.333 381.833,197.667 406.5,183C 482.833,142.5 559.167,102 635.5,61.5C 635.833,61.6667 636.167,61.8333 636.5,62C 598.916,100.92 561.249,139.92 523.5,179C 524,179.167 524.5,179.333 525,179.5C 530.18,176.505 535.68,174.172 541.5,172.5 Z"/></g>
<g><path fill="#102338" d="M 660.5,236.5 C 662.655,236.372 664.655,236.872 666.5,238C 716.407,276.378 735.907,326.878 725,389.5C 717.843,429.992 698.677,463.492 667.5,490C 650.181,502.663 632.181,514.33 613.5,525C 584.015,539.902 555.681,556.569 528.5,575C 497.626,598.107 486.626,628.607 495.5,666.5C 453.429,672.734 411.429,679.401 369.5,686.5C 361.293,655.015 360.46,623.348 367,591.5C 377.42,556.084 397.587,527.584 427.5,506C 455.005,487.742 483.338,470.742 512.5,455C 530.862,444.229 547.695,431.395 563,416.5C 579.149,394.273 582.482,370.273 573,344.5C 567.273,334.775 559.106,327.941 548.5,324C 541.31,321.37 533.976,319.37 526.5,318C 571.397,291.059 616.064,263.892 660.5,236.5 Z"/></g>
<g><path fill="#102338" d="M 427.5,761.5 C 462.726,757.365 489.226,770.365 507,800.5C 523.805,848.076 512.305,887.243 472.5,918C 446.218,933.69 418.552,936.69 389.5,927C 366.826,915.985 352.659,898.152 347,873.5C 340.276,823.439 359.776,787.939 405.5,767C 412.738,764.19 420.072,762.357 427.5,761.5 Z"/></g>
</svg>
